<svg width="64px" height="64px" viewBox="0 0 64 64" xmlns="http://www.w3.org/2000/svg">
  <defs>
    <linearGradient id="gradGearFull" x1="0%" y1="0%" x2="100%" y2="100%">
      <stop offset="0%" style="stop-color:#ff9800;stop-opacity:1" />
      <stop offset="100%" style="stop-color:#f44336;stop-opacity:1" />
    </linearGradient>
  </defs>
  <g fill="none" stroke="url(#gradGearFull)" stroke-width="3" stroke-linejoin="round">
    <circle cx="32" cy="32" r="12" />
    <circle cx="32" cy="32" r="5" />

    <path d="M30 8 h4 l2 6 h-8 z" />
    <path d="M30 56 h4 l-2 -6 h-8 z" transform="rotate(180 32 32)" />
    <path d="M56 30 v4 l-6 2 v-8 z" />
    <path d="M8 30 v4 l6 -2 v-8 z" transform="rotate(180 32 32)" />

    <path d="M46 14 l3 3 l-4 5 l-3 -3 z" />
    <path d="M14 46 l3 3 l5 -4 l-3 -3 z" transform="rotate(180 32 32)" />
    <path d="M46 50 l-3 3 l-5 -4 l3 -3 z" />
    <path d="M14 18 l-3 -3 l4 -5 l3 3 z" transform="rotate(180 32 32)" />
  </g>
</svg>
