<svg width="24" height="24" viewBox="0 0 64 64" xmlns="http://www.w3.org/2000/svg">
  <defs>
    <linearGradient id="gradAccount" x1="0%" y1="0%" x2="100%" y2="0%">
      <stop offset="0%" stop-color="#e65100" />
      <stop offset="100%" stop-color="#ffb74d" />
    </linearGradient>
  </defs>
  <g stroke="url(#gradAccount)" stroke-width="3" fill="none" stroke-linecap="round" stroke-linejoin="round">
    <path d="M32 30 a10 10 0 1 0 0 -20 a10 10 0 0 0 0 20 z" />
    <path d="M32 14 c-3 0 -6 2 -6 6" />
    <path d="M14 54 v-4 c0 -8 8 -12 18 -12 c2 0 4 0.2 6 0.6" />
    <line x1="14" y1="54" x2="40" y2="54" />
    <g transform="translate(36, 36) scale(0.8)">
        <circle cx="16" cy="16" r="5" />
        <path d="M16 2 a2 2 0 0 1 2 2 v2 a2 2 0 0 1 -2 2 a2 2 0 0 1 -2 -2 v-2 a2 2 0 0 1 2 -2 z" transform="rotate(0 16 16)" />
        <path d="M16 2 a2 2 0 0 1 2 2 v2 a2 2 0 0 1 -2 2 a2 2 0 0 1 -2 -2 v-2 a2 2 0 0 1 2 -2 z" transform="rotate(45 16 16)" />
        <path d="M16 2 a2 2 0 0 1 2 2 v2 a2 2 0 0 1 -2 2 a2 2 0 0 1 -2 -2 v-2 a2 2 0 0 1 2 -2 z" transform="rotate(90 16 16)" />
        <path d="M16 2 a2 2 0 0 1 2 2 v2 a2 2 0 0 1 -2 2 a2 2 0 0 1 -2 -2 v-2 a2 2 0 0 1 2 -2 z" transform="rotate(135 16 16)" />
        <path d="M16 2 a2 2 0 0 1 2 2 v2 a2 2 0 0 1 -2 2 a2 2 0 0 1 -2 -2 v-2 a2 2 0 0 1 2 -2 z" transform="rotate(180 16 16)" />
        <path d="M16 2 a2 2 0 0 1 2 2 v2 a2 2 0 0 1 -2 2 a2 2 0 0 1 -2 -2 v-2 a2 2 0 0 1 2 -2 z" transform="rotate(225 16 16)" />
        <path d="M16 2 a2 2 0 0 1 2 2 v2 a2 2 0 0 1 -2 2 a2 2 0 0 1 -2 -2 v-2 a2 2 0 0 1 2 -2 z" transform="rotate(270 16 16)" />
        <path d="M16 2 a2 2 0 0 1 2 2 v2 a2 2 0 0 1 -2 2 a2 2 0 0 1 -2 -2 v-2 a2 2 0 0 1 2 -2 z" transform="rotate(315 16 16)" />
        <circle cx="16" cy="16" r="12" stroke-width="2"/>
    </g>
  </g>
</svg>