<svg width="24" height="24" viewBox="0 0 64 64" xmlns="http://www.w3.org/2000/svg">
  <defs>
    <linearGradient id="gradFeed" x1="0%" y1="0%" x2="0%" y2="100%">
      <stop offset="0%" stop-color="#ff9800" />
      <stop offset="100%" stop-color="#d84315" />
    </linearGradient>
  </defs>
  <g stroke="url(#gradFeed)" stroke-width="3" fill="none" stroke-linecap="round" stroke-linejoin="round">
    <rect x="12" y="10" width="40" height="48" rx="4" />
    <path d="M24 10 V6 a4 4 0 0 1 4-4 h8 a4 4 0 0 1 4 4 v4" />
    <circle cx="32" cy="8" r="2" fill="url(#gradFeed)" stroke="none"/>
    <rect x="20" y="20" width="6" height="6" />
    <line x1="30" y1="20" x2="46" y2="20" />
    <line x1="30" y1="26" x2="46" y2="26" />
    <rect x="20" y="32" width="6" height="6" />
    <line x1="30" y1="32" x2="46" y2="32" />
    <line x1="30" y1="38" x2="46" y2="38" />
    <path d="M20 44 h6 v8 l-3 -2 l-3 2 v-8z" />
    <line x1="30" y1="44" x2="46" y2="44" />
    <line x1="30" y1="50" x2="46" y2="50" />
  </g>
</svg>